<svg width="24" height="24" viewBox="0 0 24 24" xmlns="http://www.w3.org/2000/svg"><g fill="#FFF" fill-rule="nonzero"><path d="M12.347 3.75c3.424 0 6.237 2.569 6.46 5.83 1.424.445 2.443 1.739 2.443 3.253 0 1.894-1.585 3.417-3.526 3.417H14.5L14.5 15h1c.89 0 1.337-1.077.707-1.707l-3.5-3.5a1 1 0 0 0-1.414 0l-3.5 3.5c-.63.63-.184 1.707.707 1.707h1l-.001 1.25H7.143c-2.42 0-4.393-1.896-4.393-4.25 0-2.053 1.507-3.775 3.522-4.166.926-2.425 3.334-4.084 6.075-4.084z"/><path d="M13.5 18.02l2-.02-3.5 3-3.5-3h2v-4h-2l3.5-3.5 3.5 3.5h-2z"/></g></svg>