<?xml version="1.0" encoding="UTF-8"?>
<svg width="39px" height="39px" viewBox="0 0 39 39" version="1.1" xmlns="http://www.w3.org/2000/svg" xmlns:xlink="http://www.w3.org/1999/xlink">
    <title>cloud-key</title>
    <g id="25-数据优化/表格交互" stroke="none" stroke-width="1" fill="none" fill-rule="evenodd">
        <g id="云端数据优化" transform="translate(-2171.000000, -2875.000000)" fill-rule="nonzero">
            <g id="cloud-key" transform="translate(2172.000000, 2876.000000)">
                <circle id="Oval-3" stroke="#496EB8" stroke-width="1.08" fill="#FFFFFF" cx="18.46" cy="18.46" r="18.46"></circle>
                <g id="编组" transform="translate(9.125000, 11.358861)" fill="#608FEE" stroke="#608FEE" stroke-width="0.5">
                    <g id="ic_list_text备份">
                        <path d="M12.2193858,7.46093035 C13.8309686,7.46093035 15.2449786,8.48839368 15.7566839,9.98589623 L15.7692045,10.0265201 L15.8063473,10.0408128 C16.8340297,10.4545251 17.5801354,11.3647968 17.7869773,12.4525584 L17.8229526,12.6882506 L17.8418564,12.9286785 L17.8443858,13.0548936 C17.8443858,14.624152 16.7218637,15.5348171 15.20157,15.8277518 C15.1444247,15.8387627 13.1011804,15.8529994 9.07183722,15.8704617 C8.85229915,15.8870035 8.73961327,15.8864762 8.58592402,15.838746 C7.32907838,15.4484162 6.59438578,14.6152411 6.59438578,13.2892044 C6.59438578,12.1343799 7.25117654,11.107689 8.24478424,10.6018739 L8.46273893,10.5016006 L8.55435677,10.4667462 L8.58592402,10.3162695 C8.92978157,8.87513568 10.1133693,7.76660563 11.5904469,7.51465491 L11.8540431,7.47919149 L12.095938,7.46300833 L12.2193858,7.46093035 Z M4.01177874,0 L4.51080757,0.00475797724 L4.96715943,0.0141804239 L5.38387741,0.0291207845 L5.76227238,0.0503199592 C7.00265103,0.134992232 7.45534897,0.36080292 8.01246575,0.876791213 L8.12554568,0.983902066 L8.64417306,1.05731297 L8.77593669,1.19827097 L8.87625,1.31863856 L8.98328118,1.18890954 L9.10058866,1.06160902 L9.17862663,0.983902066 C9.39064153,0.779138309 9.86119536,0.597528529 10.1091213,0.469825629 C10.4837255,0.276872652 10.9085841,0.181013892 11.5018265,0.116226503 L11.7324162,0.0932587518 L12.0072078,0.0715400847 L12.3867181,0.0503199592 L12.8029564,0.0354415775 L13.2589676,0.026051514 L13.7580181,0.0213086047 L15.6688947,0.0169980857 L16.0589908,0.0294144546 C16.6538903,0.0636025575 16.9764609,0.176704712 17.2799669,0.46982711 C17.5359395,0.717050843 17.6514441,0.936058359 17.704783,1.31400753 L17.7220241,1.4635544 L17.7353568,1.65132369 L17.7451994,1.92944963 L17.7490511,2.2571026 L17.7501374,9.22895793 C17.6013401,9.13593684 17.4460411,9.05141133 17.2848613,8.97613478 L17.0387587,8.87025085 L16.9892348,8.85157723 L16.9725408,8.79850168 C16.314634,6.91187033 14.5380534,5.59626947 12.4853185,5.5047044 L12.2561433,5.49960086 L12.0915463,5.50231577 L11.7690197,5.52345929 L11.4175581,5.56979271 C9.5238688,5.88630896 7.99197679,7.23752569 7.46935611,9.01485297 L7.41152757,9.23013863 L7.36943791,9.42673844 L7.24728078,9.47227616 L6.95667453,9.60328447 C5.73501469,10.2126841 4.89523395,11.4007673 4.77186843,12.7651774 L2.51294946,12.7659162 L1.97923898,12.7617321 L1.69107098,12.7521227 C1.06423746,12.7207627 0.789333308,12.6211541 0.468662321,12.3114434 C0.208342467,12.0600125 0.0855757538,11.7941842 0.0337857122,11.3608568 L0.0175614459,11.1902085 L0.00659810443,10.9872142 L0,10.6697388 L0,2.10496899 L0.00667174813,1.78933518 C0.0324072757,1.11541277 0.143680645,0.783726666 0.468679122,0.469825629 C0.703882018,0.242669511 0.952029431,0.124084068 1.32270541,0.0662164607 L1.48938778,0.0449939635 L1.69231397,0.0292900576 L1.99713152,0.0183084595 L4.01177874,0 Z" id="形状结合"></path>
                    </g>
                </g>
                <rect id="矩形" fill="#FFFFFF" x="17.125" y="10.3754057" width="1.6" height="6" rx="0.8"></rect>
            </g>
        </g>
    </g>
</svg>