<svg t="1640680958140" class="icon" viewBox="0 0 1024 1024" version="1.1" xmlns="http://www.w3.org/2000/svg" p-id="7893" width="22" height="22"><path d="M448.9216 34.6624c-9.1136 7.7824-15.872 16.5888-22.528 27.4944l-4.1472 7.0144-9.0624 17.3568-14.2336 29.7984L237.568 459.0592l-9.6256 21.4016-4.8128 11.6224-3.8912 10.24-3.2768 9.6768-1.536 4.8128c-11.264 37.7344-10.24 71.424 10.0352 102.6048 20.1728 31.0272 50.432 45.8752 89.6512 51.6096l5.12 0.6656 10.24 1.1264 11.0592 0.8192 12.6464 0.5632 33.28 0.512 57.3952 0.0512v212.5824l0.3584 21.4016 0.512 10.4448 0.8704 9.3184c1.3824 12.6976 3.7888 23.552 8.7552 34.4064 9.6768 21.248 27.5968 38.3488 53.7088 43.9808 25.9584 5.632 49.3568-2.4064 67.072-17.5616 9.0624-7.7824 15.872-16.5888 22.528-27.4432l4.096-7.0656 9.0624-17.3568 14.2848-29.8496 157.3888-334.1824 13.568-29.952 4.8128-11.5712 3.8912-10.24 3.2768-9.6768 1.536-4.8128c11.264-37.7344 10.24-71.424-10.0352-102.6048-20.1728-31.0272-50.432-45.8752-89.6512-51.6096l-5.12-0.6656-10.24-1.1264-11.0592-0.8192-19.9168-0.768-26.112-0.3072-57.344-0.1024V136.6528l-0.3072-21.4016-0.512-10.4448-0.8704-9.3184a108.4928 108.4928 0 0 0-8.704-34.4064l-3.584-6.912a74.8544 74.8544 0 0 0-50.176-37.0688 76.288 76.288 0 0 0-67.072 17.5616z m50.2272 52.48l4.1984 0.512-0.4096 0.1024 1.4848 2.9696a33.8432 33.8432 0 0 1 2.2016 8.5504l0.8704 7.424 0.512 7.8336 0.3584 16.384 0.1024 289.9968 136.0896 0.1024 15.1552 0.2048 17.8176 0.6144 13.8752 1.024 8.1408 1.024c20.7872 3.072 32.9216 9.0112 39.936 19.7632 6.8608 10.5984 7.2192 23.4496 1.3824 42.9568l-2.4064 7.6288-4.8128 12.6976-4.352 10.24-12.3904 27.3408-161.1264 342.016-8.4992 17.7152-4.1984 8.3456-5.0688 9.3184-1.536 2.56a44.7488 44.7488 0 0 1-7.9872 10.4448c-2.048 1.6896-3.6864 2.2528-5.2736 1.9456-1.536-0.3584-2.6112-1.3824-3.584-3.584a33.792 33.792 0 0 1-2.2528-8.5504l-0.8704-7.424-0.6656-12.544-0.256-19.0464v-282.624l-136.192-0.1024-15.2064-0.2048-17.7664-0.6144-9.5232-0.6656-12.4416-1.4336c-20.7872-3.072-32.9216-8.96-39.936-19.712-6.8608-10.5984-7.2192-23.4496-1.3824-42.9568l2.4576-7.6288 2.9696-8.192 6.144-14.7968 8.704-19.456L476.7744 119.808l4.1984-8.3456 4.5568-8.3968 2.048-3.4816a44.6976 44.6976 0 0 1 7.9872-10.4448 7.8848 7.8848 0 0 1 3.6352-1.9456z" fill="#FFFFFF" p-id="7894"></path></svg>