<svg t="1640680926368" class="icon" viewBox="0 0 1024 1024" version="1.1" xmlns="http://www.w3.org/2000/svg" p-id="7729" width="22" height="22"><path d="M642.7648 122.368l37.5808 0.3584 30.9248 0.7168 17.7152 0.768 15.872 1.024 14.4896 1.28 13.568 1.5872c45.1584 5.9904 74.496 17.8176 96.8192 39.7312 14.2336 13.9776 24.32 30.72 31.3856 52.48v-14.4384c20.48 48.2816 20.48 119.4496 20.48 233.5232v160.768c0 151.552 0 227.328-47.9744 274.3808C825.6512 921.6 748.3904 921.6 593.92 921.6H413.7984c-143.6672-0.0512-217.1392-1.6896-263.424-47.104-44.4416-43.52-47.7184-111.7696-47.9744-241.92V406.9376c0.256-130.1504 3.584-198.3488 47.9744-241.92 4.2496-4.1472 8.704-7.936 13.4656-11.4176v5.8368c21.0432-16.64 48.2816-26.1632 87.2448-31.3344l13.568-1.536 14.4896-1.3312 15.872-1.024 17.7152-0.768 30.976-0.7168 37.5808-0.3584h261.4784z m-0.6656 71.68H381.952l-46.2848 0.512-27.4432 0.8192-22.6304 1.28-13.1584 1.1264-12.032 1.3824c-31.0272 4.096-46.2336 10.24-56.0128 19.8656-9.6768 9.472-15.8208 24.064-19.968 54.272l-1.1264 9.3184-1.4336 14.848-1.0752 16.9984-0.9728 27.7504-0.512 36.1472L179.2 600.064l0.1024 45.056L242.0736 583.68c51.712-50.688 79.104-77.6192 106.9568-82.8416l5.5808-0.768c15.0016-1.2288 30.1056 1.6384 43.5712 8.2432 26.7776 13.1584 42.1376 48.3328 72.8576 118.6304l2.2016 4.9664c13.312 30.6176 20.0192 45.8752 31.0272 52.5824a41.6256 41.6256 0 0 0 28.672 5.376c12.6976-2.2016 24.6784-13.9264 48.64-37.4784l4.608-4.5056c29.5936-29.0304 44.3392-43.52 61.1328-49.6128a83.456 83.456 0 0 1 57.0368 0c16.7936 6.144 31.5392 20.5824 61.0816 49.6128l30.7712 30.208a148.48 148.48 0 0 0 47.4112 31.232l0.512-11.9808 0.512-36.1472 0.1536-221.7984-0.2048-61.0304-0.512-36.1472-0.9216-27.7504-1.024-16.9472-2.048-19.6096-2.048-14.1312c-4.096-23.808-9.8816-36.352-18.4832-44.7488-9.7792-9.6256-24.9856-15.7696-56.0128-19.8656l-12.032-1.3824-13.1584-1.1264-22.6304-1.28-27.392-0.8192-46.2336-0.512zM634.88 318.8736c45.2608 0 81.92 35.9424 81.92 80.384 0 44.3392-36.6592 80.3328-81.92 80.3328-45.2608 0-81.92-35.9936-81.92-80.384 0-44.3904 36.6592-80.384 81.92-80.384z" fill="#FFFFFF" p-id="7730"></path></svg>