<?xml version="1.0" encoding="UTF-8"?>
<svg width="38px" height="38px" viewBox="0 0 38 38" version="1.1" xmlns="http://www.w3.org/2000/svg" xmlns:xlink="http://www.w3.org/1999/xlink">
    <title>icn_blockly_head_letter</title>
    <g id="设计规范" stroke="none" stroke-width="1" fill="none" fill-rule="evenodd">
        <g id="事件类积木图标汇总" transform="translate(-128.000000, -259.000000)">
            <g id="Group-2" transform="translate(123.000000, 254.000000)">
                <g id="icn_blockly_head_letter" transform="translate(5.000000, 5.000000)">
                    <circle id="Oval-3" stroke="#496EB8" stroke-width="1.08" fill="#FFFFFF" cx="19" cy="19" r="18.46"></circle>
                    <g id="编组-2" transform="translate(7.000000, 7.000000)">
                        <rect id="矩形" x="0" y="0" width="24" height="24"></rect>
                        <g id="编组" transform="translate(2.250000, 2.375000)" fill="#5F8FEE" fill-rule="nonzero">
                            <path d="M10.6917655,0.496554573 L10.7771811,0.649353069 L17.3649121,14.7721952 C17.744187,15.4780551 18.1511255,15.8940774 18.5857275,16.0202619 L18.7335,16.05 L18.75,16.0500003 C19.1642136,16.0500003 19.5,16.3857867 19.5,16.8000003 C19.5,17.1681901 19.2346873,17.4744128 18.8848134,17.5379168 L18.75,17.5500003 L13.0799122,17.5500003 C12.6656987,17.5500003 12.3299122,17.2142138 12.3299122,16.8000003 C12.3299122,16.4318104 12.595225,16.1255877 12.9450988,16.0620838 L13.0799122,16.0500003 C13.81919,15.8634545 13.7698529,15.4477508 13.6763007,15.1755504 L12.7395,13.152 L5.496,13.152 L4.43550791,15.4712717 C4.37638608,15.7060657 4.44060424,15.9454498 4.91564267,16.053995 L4.914,16.056 L4.97921295,16.0620838 C5.32908676,16.1255877 5.5943995,16.4318104 5.5943995,16.8000003 C5.5943995,17.1681901 5.32908676,17.4744128 4.97921295,17.5379168 L4.8443995,17.5500003 L0.75,17.5500003 C0.335786438,17.5500003 0,17.2142138 0,16.8000003 C0,16.4318104 0.265312741,16.1255877 0.615186551,16.0620838 L0.774,16.05 L0.902994062,16.0343575 C1.40341509,15.9363157 1.85968831,15.5092153 2.27181371,14.7530562 L2.445,14.418 L8.73446348,0.657394439 C9.10837367,-0.160796126 10.2199905,-0.216217036 10.6917655,0.496554573 Z M9.099,5.2695 L6.525,10.902 L11.7015,10.902 L9.099,5.2695 Z" id="形状"></path>
                        </g>
                    </g>
                </g>
            </g>
        </g>
    </g>
</svg>