<?xml version="1.0" encoding="UTF-8"?>
<svg width="38px" height="38px" viewBox="0 0 38 38" version="1.1" xmlns="http://www.w3.org/2000/svg" xmlns:xlink="http://www.w3.org/1999/xlink">
    <title>icn_blockly_head_internet</title>
    <g id="设计规范" stroke="none" stroke-width="1" fill="none" fill-rule="evenodd">
        <g id="事件类积木图标汇总" transform="translate(-128.000000, -172.000000)">
            <g id="Group-2" transform="translate(123.000000, 167.000000)">
                <g id="icn_blockly_head_internet" transform="translate(5.000000, 5.000000)">
                    <circle id="Oval-3" stroke="#496EB8" stroke-width="1.08" fill="#FFFFFF" cx="19" cy="19" r="18.46"></circle>
                    <g id="编组" transform="translate(7.000000, 7.000000)">
                        <rect id="矩形" x="0" y="0" width="24" height="24"></rect>
                        <path d="M8.61139415,9.68553747 C8.61139415,9.68553747 10.1461693,9.78372775 10.405522,7.9603741 C10.405522,7.9603741 13.44469,8.24306541 15.8684342,9.68553747 C15.8684342,9.68553747 15.2843387,11.5299169 16.7864187,12.4327629 C16.7864187,12.4327629 15.2715129,14.7185781 11.8223426,16.3607948 C11.8223426,16.3607948 11.1401619,14.7758732 9.35539056,15.0701287 C9.35654698,15.0701287 8.63126349,13.6697082 8.61139415,9.68553747 L8.61139415,9.68553747 Z M9.51897095,5.61495091 C9.51897095,5.61495091 10.2992368,6.24572362 10.3283575,6.82035756 C10.3283575,6.82035756 13.6268782,7.02588433 16.4851196,8.82589939 C16.4851196,8.82589939 17.7618036,7.77345512 18.9963309,8.55719022 C18.9963309,8.55719022 19.6738859,7.29806276 19.8163355,4.9841782 C19.8163355,4.9841782 17.2653855,1.62026733 11.9437664,1.5 C11.9414535,1.50115642 9.86473952,4.33364127 9.51897095,5.61495091 L9.51897095,5.61495091 Z M20.7285379,6.29355722 C20.7285379,6.29355722 23.3881911,9.35385615 22.189828,14.5480592 C22.189828,14.5480592 20.7133994,12.1605845 19.9786543,11.6069763 C19.9786543,11.6069763 20.6374964,10.3268231 19.8817256,9.38297682 C19.8817256,9.38182041 20.584932,8.00242562 20.7285379,6.29471363 L20.7285379,6.29355722 Z M11.3702889,18.8149212 C11.3702889,18.8149212 11.8246555,18.6163329 11.9928615,17.5113242 C11.9928615,17.5113242 15.6522894,16.2253889 17.9089839,12.7749571 C17.9089839,12.7749571 18.6237545,12.8217394 19.1249034,12.4327629 C19.1249034,12.4327629 20.8325103,14.027146 21.6420019,16.1109037 C21.6420019,16.1109037 20.0487752,20.6697083 14.8918929,22.1356241 C14.8895801,22.1356241 12.5699134,20.6218747 11.3702889,18.8137648 L11.3702889,18.8149212 Z M3.84117552,18.6513408 C3.84117552,18.6513408 6.68059888,23.048983 13.2671275,22.4439668 C13.2671275,22.4439668 10.9275915,20.2153417 10.4464171,19.4981531 C10.4464171,19.4981531 8.61255056,19.9537813 7.97946502,18.6537587 C7.9783086,18.6513408 5.60954682,19.0099351 3.84117552,18.6513408 L3.84117552,18.6513408 Z M6.07905197,8.18230097 C6.07905197,8.18230097 3.40310387,8.75230924 1.68382772,10.023106 C1.68382772,10.023106 0.789076632,13.8016448 2.94758085,17.3350233 C2.94758085,17.3350233 5.1715803,17.8220849 7.40956187,17.5954273 C7.40956187,17.5954273 7.3943182,16.1938503 8.30305142,15.4929567 C8.30305142,15.4929567 7.20046072,12.6464897 7.47495198,9.61783453 C7.47495198,9.61657298 6.3395611,9.34092531 6.08031352,8.18345739 L6.07905197,8.18230097 Z M2.13819433,8.39602779 C2.13819433,8.39602779 3.98709427,2.7136067 10.3307754,1.63782384 C10.3307754,1.63782384 9.35770339,3.03708797 8.43267521,5.26802592 C8.43267521,5.26802592 6.4867414,5.0542991 6.03121837,7.04112801 C6.03121837,7.04228442 3.95324281,7.41843522 2.13693279,8.39602779 L2.13819433,8.39602779 Z" id="网络" fill="#5F8EEE"></path>
                    </g>
                </g>
            </g>
        </g>
    </g>
</svg>