<?xml version="1.0" encoding="UTF-8"?>
<svg width="24px" height="24px" viewBox="0 0 24 24" version="1.1" xmlns="http://www.w3.org/2000/svg" xmlns:xlink="http://www.w3.org/1999/xlink">
    <title>icn/24_list</title>
    <g id="icn/24_list" stroke="none" stroke-width="1" fill="none" fill-rule="evenodd">
        <g id="icn_24_AR" fill="#FFFFFF">
            <path d="M5.5,9 C6.32842712,9 7,8.32842712 7,7.5 C7,6.67157288 6.32842712,6 5.5,6 C4.67157288,6 4,6.67157288 4,7.5 C4,8.32842712 4.67157288,9 5.5,9 Z M5.5,13.5 C6.32842712,13.5 7,12.8284271 7,12 C7,11.1715729 6.32842712,10.5 5.5,10.5 C4.67157288,10.5 4,11.1715729 4,12 C4,12.8284271 4.67157288,13.5 5.5,13.5 Z M5.5,18 C6.32842712,18 7,17.3284271 7,16.5 C7,15.6715729 6.32842712,15 5.5,15 C4.67157288,15 4,15.6715729 4,16.5 C4,17.3284271 4.67157288,18 5.5,18 Z M9.5,6 L18.5,6 C19.3284271,6 20,6.67157288 20,7.5 C20,8.32842712 19.3284271,9 18.5,9 L9.5,9 C8.67157288,9 8,8.32842712 8,7.5 C8,6.67157288 8.67157288,6 9.5,6 Z M9.5,10.5 L18.5,10.5 C19.3284271,10.5 20,11.1715729 20,12 C20,12.8284271 19.3284271,13.5 18.5,13.5 L9.5,13.5 C8.67157288,13.5 8,12.8284271 8,12 C8,11.1715729 8.67157288,10.5 9.5,10.5 Z M9.5,15 L18.5,15 C19.3284271,15 20,15.6715729 20,16.5 C20,17.3284271 19.3284271,18 18.5,18 L9.5,18 C8.67157288,18 8,17.3284271 8,16.5 C8,15.6715729 8.67157288,15 9.5,15 Z" id="形状结合"></path>
        </g>
    </g>
</svg>