<svg width="22" height="22" viewBox="0 0 22 22" xmlns="http://www.w3.org/2000/svg"><path d="M12.766 16.172h1.208c.893 0 1.431.972.902 1.714l-.081.097-2.975 3.124c-.393.412-1.044.462-1.528.101l-.112-.101-2.975-3.124c-.618-.65-.211-1.683.693-1.804l.128-.007H9.24l.661-2.012c.205-1.096 1.77-1.2 2.145-.183l.012.037.023.086.684 2.072zm3.406-3.406l-2.014-.669c-1.181-.222-1.18-1.974-.056-2.18l2.07-.676V8.026c0-.962 1.112-1.486 1.81-.82l3.125 2.974a1.14 1.14 0 0 1 0 1.64l-3.124 2.975c-.7.665-1.811.141-1.811-.82v-1.21zM5.828 9.24l2.012.661c1.182.22 1.183 1.973.06 2.18l-2.072.684v1.208c0 .962-1.112 1.486-1.81.82L.892 11.82a1.141 1.141 0 0 1 0-1.64l3.124-2.975c.7-.665 1.811-.141 1.811.82v1.216zm6.938-3.413l-.669 2.014c-.222 1.181-1.974 1.18-2.18.056l-.676-2.07H8.026c-.962 0-1.486-1.112-.82-1.81L10.18.892a1.141 1.141 0 0 1 1.64 0l2.975 3.124c.665.7.141 1.811-.82 1.811h-1.21z" stroke="#FFF" fill-rule="evenodd"/></svg>