<svg width="36" height="36" viewBox="0 0 36 36" xmlns="http://www.w3.org/2000/svg"><g transform="translate(-62 -40)" fill="none" fill-rule="evenodd"><circle fill="#5680D5" cx="80" cy="58" r="18"/><circle fill="#FFF" cx="80" cy="58" r="17"/><path d="M86.02 67c1.274-2.093 1.98-4.523 1.98-6.922 0-1.058-.107-2.093-.37-3.094-.192-.69-.75-1.234-1.478-1.234-.44 0-.839.195-1.109.507v-.132c0-.829-.661-1.5-1.478-1.5s-1.478.671-1.478 1.5v-.75c0-.829-.662-1.5-1.478-1.5-.817 0-1.479.671-1.479 1.5V50.5c0-.829-.661-1.5-1.478-1.5s-1.478.671-1.478 1.5v8.554c0 .416-.333.75-.74.75a.74.74 0 0 1-.202-.03l-2.089-.862a1.462 1.462 0 0 0-.665-.162c-.816 0-1.478.671-1.478 1.5 0 .623.377 1.159.91 1.388 2.398 1.256 4.32 2.797 5.665 5.362h8.444z" fill="#608FEE"/></g></svg>