<?xml version="1.0" encoding="UTF-8"?>
<svg width="39px" height="39px" viewBox="0 0 39 39" version="1.1" xmlns="http://www.w3.org/2000/svg" xmlns:xlink="http://www.w3.org/1999/xlink">
    <title>cloud-table</title>
    <g id="25-数据优化/表格交互" stroke="none" stroke-width="1" fill="none" fill-rule="evenodd">
        <g id="云端数据优化" transform="translate(-2228.000000, -2875.000000)" fill-rule="nonzero">
            <g id="cloud-table" transform="translate(2229.000000, 2876.000000)">
                <circle id="Oval-3" stroke="#496EB8" stroke-width="1.08" fill="#FFFFFF" cx="18.46" cy="18.46" r="18.46"></circle>
                <g id="编组-3" transform="translate(9.007620, 10.750000)" fill="#608FEE">
                    <path d="M4.299,11.4 L4.299,17.039 L2.93874072,17.0398235 C1.3904616,17.0398235 0.115354429,15.9183036 0.00740234809,14.4882004 L0,14.29135 L0,11.4 L4.299,11.4 Z M8.136,11.4 L7.9887301,11.5313321 C7.23720929,12.2306556 6.77745576,13.2288813 6.77745576,14.3177159 C6.77745576,15.3711714 7.20836237,16.3431869 7.92027789,17.0398322 L5.699,17.039 L5.699,11.4 L8.136,11.4 Z M13.7032996,8.24090673 C15.2626198,8.24090673 16.6307745,9.25500553 17.1258855,10.7330296 L17.138,10.773125 L17.1739383,10.7872318 C18.1682937,11.1955628 18.8902036,12.0939943 19.0903378,13.1676071 L19.1251464,13.4002336 L19.1434372,13.6375341 L19.1458846,13.7621075 C19.1458846,15.3109541 18.1878523,16.5361158 16.7168607,16.8252402 C16.6615686,16.8361079 14.6845854,16.8501594 10.7859111,16.8673946 C10.5734925,16.8837212 10.4644609,16.8832007 10.3157557,16.8360914 C9.09966873,16.4508387 8.26071456,15.3021591 8.26071456,13.9933706 C8.26071456,12.8535673 8.89620603,11.8402309 9.8575917,11.340995 L10.0684783,11.242026 L10.157125,11.207625 L10.1876685,11.0591056 C10.520375,9.63671705 11.6655798,8.542606 13.0947568,8.29393248 L13.3498047,8.25893035 L13.5838552,8.24295768 L13.7032996,8.24090673 Z M12.3,5.4 L12.3,7.23403502 L12.3,7.23403502 L12.1433027,7.29031986 C10.7802108,7.80589158 9.72047537,8.94319042 9.31213634,10.3649558 L9.257,10.571 L9.26739258,10.5262186 C9.2750949,10.4915484 9.28261494,10.4597996 9.28995269,10.4309721 L9.31141907,10.3532535 C9.33931174,10.2613139 9.379238,10.1435627 9.43119786,10 L9.43119786,10 L0,10 L0,5.4 L4.3,5.4 L4.3,5.38713898 L5.7,5.38713898 L5.7,5.4 L4.3,5.4 L4.3,9.98496383 L5.7,9.98496383 L5.7,5.4 L12.3,5.4 Z M18.308,5.4 L18.309,10.264 L18.2412301,10.2340235 L18.1950079,10.2160555 L18.1794268,10.1649855 C17.5653804,8.34964573 15.9072386,7.08375844 13.9913527,6.99565341 L13.7774558,6.99074272 L13.64,6.993 L13.7,6.98979762 L13.7,5.4 L18.308,5.4 Z M15.3695308,0 C16.9178099,0 18.1929171,1.12151993 18.3008691,2.55158566 L18.3082715,2.74843074 L18.308,4 L0,4 L0,2.74847353 C0,1.29199696 1.20779069,0.107151959 2.72938892,0.00687522338 L2.93874072,0 L15.3695308,0 Z" id="形状结合"></path>
                </g>
            </g>
        </g>
    </g>
</svg>