<?xml version="1.0" encoding="UTF-8"?>
<svg width="38px" height="38px" viewBox="0 0 38 38" version="1.1" xmlns="http://www.w3.org/2000/svg" xmlns:xlink="http://www.w3.org/1999/xlink">
    <title>icn_blockly_head_broadcast</title>
    <g id="设计规范" stroke="none" stroke-width="1" fill="none" fill-rule="evenodd">
        <g id="事件类积木图标汇总" transform="translate(-128.000000, -433.000000)">
            <g id="Group-2" transform="translate(123.000000, 428.000000)">
                <g id="icn_blockly_head_broadcast" transform="translate(5.000000, 5.000000)">
                    <circle id="Oval-3" stroke="#496EB8" stroke-width="1.08" fill="#FFFFFF" cx="19" cy="19" r="18.46"></circle>
                    <path d="M26.408618,22.6393826 L26.408618,28.6439481 C26.408618,28.964952 26.1498681,29.2252093 25.8307236,29.2252093 L18.4962997,29.2252093 C18.1423157,29.2252093 17.9757259,28.7853672 18.2399407,28.5484402 L20.1597139,26.827081 C20.8121933,26.6967806 21.4501408,26.4995184 22.0687433,26.2360441 C23.2419208,25.7363612 24.2956441,25.0213951 25.2007252,24.1110721 C25.6526138,23.6565508 26.0560623,23.1647696 26.408618,22.6393826 Z M24.575602,10.9674026 C24.7364783,10.9674026 24.8970132,11.0344892 25.0118096,11.1669447 C26.3884347,12.7552237 27.2222222,14.8319421 27.2222222,17.1045172 C27.2222222,18.7090682 26.8050179,20.2168308 26.0740721,21.524083 C25.0957411,23.273801 23.5551344,24.6640994 21.6999168,25.4460897 C20.6331519,25.8957388 19.4624586,26.1443466 18.2347552,26.1443466 C15.9753437,26.1443466 13.9106545,25.3057324 12.3315754,23.921087 C12.079129,23.6997449 12.0656217,23.3096867 12.3024183,23.0714792 L16.2166118,19.1344499 L20.7614867,14.5631271 L24.1671231,11.1376177 C24.2803669,11.0237141 24.4281397,10.9674026 24.575602,10.9674026 Z M19.7548985,11.0200216 C19.9718564,11.2369796 19.9718564,11.5887379 19.7548985,11.8056959 C19.5379405,12.0226538 19.1861822,12.0226538 18.9692243,11.8056959 C17.4505187,10.2869903 14.9882104,10.2869903 13.4695049,11.8056959 C11.9507993,13.3244014 11.9507993,15.7867097 13.4695049,17.3054153 C13.6864628,17.5223732 13.6864628,17.8741315 13.4695049,18.0910895 C13.2525469,18.3080474 12.9007886,18.3080474 12.6838306,18.0910895 C10.7312092,16.138468 10.7312092,12.9726431 12.6838306,11.0200216 C14.6364521,9.06740019 17.802277,9.06740019 19.7548985,11.0200216 Z M16.1789466,13.8633399 L19.6971748,14.4005951 L16.0550212,18.0639684 L15.520878,14.5252425 C15.4624085,14.1379328 15.7938493,13.8045298 16.1789466,13.8633399 Z M18.1835501,12.5913701 C18.400508,12.808328 18.400508,13.1600863 18.1835501,13.3770443 C17.9665921,13.5940022 17.6148338,13.5940022 17.3978759,13.3770443 C16.747002,12.7261704 15.6917271,12.7261704 15.0408533,13.3770443 C14.3899794,14.0279181 14.3899794,15.083193 15.0408533,15.7340669 C15.2578112,15.9510248 15.2578112,16.3027831 15.0408533,16.5197411 C14.8238953,16.736699 14.472137,16.736699 14.2551791,16.5197411 C13.1703894,15.4349514 13.1703894,13.6761598 14.2551791,12.5913701 C15.3399688,11.5065804 17.0987604,11.5065804 18.1835501,12.5913701 Z" id="形状结合" fill="#608FEE" transform="translate(19.220793, 19.390382) scale(-1, 1) translate(-19.220793, -19.390382) "></path>
                </g>
            </g>
        </g>
    </g>
</svg>