<?xml version="1.0" encoding="UTF-8"?>
<svg width="24px" height="24px" viewBox="0 0 24 24" version="1.1" xmlns="http://www.w3.org/2000/svg" xmlns:xlink="http://www.w3.org/1999/xlink">
    <title>icn/24_dictionary</title>
    <g id="icn/24_dictionary" stroke="none" stroke-width="1" fill="none" fill-rule="evenodd">
        <g id="icn_24_AR" fill="#FFFFFF">
            <path d="M19.1578957,7.57093258 C19.6229547,7.57093258 20,7.9381781 20,8.39119842 L20,16.4103651 C20,16.8476711 19.6478412,17.2080934 19.1994618,17.2296881 C19.0240154,17.2381194 18.8758764,17.2477427 18.7550439,17.2585394 C16.4498794,17.4645128 14.2669869,18.2399383 12.3832958,19.5 L11.6167218,19.5 C9.73910658,18.2440026 7.56421698,17.4695202 5.2672755,17.2605503 C5.14099043,17.2490612 4.98538202,17.2388542 4.80045027,17.2299292 C4.35211819,17.2082923 4,16.8478948 4,16.4106327 L4,8.39233044 C4,8.37634252 4.00047979,8.360358 4.00143883,8.34439739 C4.02861424,7.89213706 4.42701661,7.54696736 4.89129544,7.57343929 C5.06115077,7.58311001 5.20579226,7.59401885 5.32522074,7.60615191 C7.67766806,7.84514314 9.88765671,8.71744296 11.7417234,10.1202856 L12,10.3157121 L12.2582941,10.1202856 C14.1341834,8.70093137 16.3744223,7.82468254 18.7579084,7.59797643 C18.8565382,7.58859523 18.9734586,7.58004821 19.1086697,7.57233537 C19.1250608,7.57140037 19.1414765,7.57093258 19.1578957,7.57093258 Z M17.9281768,5.50117087 C18.3506457,5.47829535 18.7121614,5.79336421 18.7356448,6.20489686 L18.7365308,6.22559877 L18.7365308,6.22559877 L18.7368266,6.77604285 C18.7160279,6.7778428 18.6957779,6.7796795 18.6760721,6.78155382 C16.2504045,7.01227203 13.9537625,7.87503724 12.0000087,9.28179066 C10.0703535,7.89239045 7.80588316,7.0334144 5.41257201,6.7902717 C5.36569686,6.78550953 5.31591386,6.78095943 5.26317738,6.77661178 L5.26317738,6.28584822 C5.26317738,5.85308151 5.62332724,5.50225478 6.0675944,5.50225478 C6.08390041,5.50225478 6.10020265,5.50273774 6.11647852,5.503703 C8.32821687,5.63487266 10.3592382,6.60393628 12.0000088,8.15575676 C13.6518114,6.59350226 15.6991304,5.62186757 17.9281768,5.50117087 Z" id="Combined-Shape"></path>
        </g>
    </g>
</svg>