<svg width="87" height="61" viewBox="0 0 87 61" xmlns="http://www.w3.org/2000/svg"><g transform="translate(0 1)" fill-rule="nonzero" fill="none"><ellipse fill="#EFEFEF" transform="rotate(2 40.5 50)" cx="40.5" cy="50" rx="35.5" ry="8"/><path d="M4.312 30.688a4 4 0 0 1 4.856-.62L27.07 40.594l-9.865 7.399L3 35.5a1.342 1.342 0 0 1-1.24-2.26l2.552-2.552z" stroke="#DEDEDE" stroke-width="1.3" fill="#FFF" stroke-linecap="round"/><path d="M12.404 48.37c-3.81-.735-4.711-1.202-6.905-1.655-1.137-.234-.666.216-2.545-.21C.54 45.958.736 42.767.854 41.49c.229-2.466 4.734-4.215 9.614-4.643 1.17-5.013 7.162-8.5 13.997-7.936 3.193.264 6.732 1.24 8.885 2.865 1.436 1.083 5.95 1.069 13.545-.043l-1.692 18.263c-6.566.75-12.395.913-17.485.493a89.38 89.38 0 0 1-8.188-1.063 76.14 76.14 0 0 1-7.126-1.055z" stroke="#DEDEDE" stroke-width="1.3" fill="#FFF" stroke-linecap="round"/><path d="M22.39 28.88c.98 0 1.959.046 2.91.152l-.053.064c-.345.435-.706 1.161-1.026 2.114-.716 2.135-1.137 5.103-1.137 8.29 0 3.185.42 6.153 1.137 8.288.32.953.681 1.68 1.026 2.114.04.051.078.095.112.131a44.695 44.695 0 0 1-4.852-.533c-.988-2.597-1.497-6.116-1.497-10 0-4.163.584-7.905 1.716-10.542.545-.051 1.1-.078 1.663-.078z" stroke="#DEDEDE" stroke-width="1.3" fill="#E5E5E5"/><path d="M22.549 51.37c2.517.22 4.548-.375 4.62-1.189.07-.813-2.107-.53-4.623-.75-2.517-.22-4.42-.86-4.492-.047-.071.813 1.978 1.765 4.495 1.985z" stroke="#DEDEDE" fill="#D8D8D8"/><path d="M62 48.5c4.74 1.43 9.36 2.163 12 1.5 2.446-.614 4.58-1.522 4.81-2.83.48-2.719-4.643-5.895-11.442-7.094-6.798-1.199-12.699.034-13.178 2.753-.48 2.72-1.322 2.918 7.81 5.671z" stroke="#DEDEDE" stroke-width="1.3" fill="#FFF" stroke-linecap="round"/><path d="M36.459 14.231c5.832-4.307 13.399-6.558 19.32-6.283 5.985.278 12.91 2.673 17.997 7.285 4.14 3.753 7.066 8.968 7.298 15.698.236 6.874-3.073 11.954-8.031 15.314-5.877 3.982-14.09 5.529-21.382 4.757-7.19-.761-13.98-3.142-18.541-7.258-3.97-3.583-6.273-8.475-5.717-14.771.543-6.138 4.192-11.15 9.056-14.742z" stroke="#DEDEDE" fill="#FFF"/><path d="M28.895 38.429c2.748.84 5.243.648 5.572-.43.329-1.076-1.632-2.63-4.38-3.47-2.747-.84-4.98-1.035-5.57.429-.592 1.463 1.63 2.63 4.378 3.47z" fill="#E5E5E5"/><ellipse fill="#DAD6D5" transform="rotate(-35 79.788 35.234)" cx="79.788" cy="35.234" rx="3.829" ry="2.039"/><path d="M70.606 0c1.45 0 8.394 10 7.06 18.663C77 21.5 75.613 26.117 75 25.5c-4.459-4.48-9.63-15.799-15.515-16.653C62.662 2.972 68.935 0 70.605 0z" fill="#E5E5E5"/><path d="M50.98 2.344c8.103-1.8 12.243 1.776 13.986 7.613-4.378-.868-8.803-.91-12.728-.264-3.183.524-6.632 1.742-9.99 3.523-.347-4.939 1.866-9.348 8.731-10.872z" fill="#E5E5E5"/><path d="M27.58 26.87c-1.977-11.896 3.665-25.598 5.662-25.703 1.998-.105 12.616 1.523 15.49 7.165-9.056 2.625-14.273 9.19-18.156 18.38l-2.996.158z" fill="#FFF"/><path d="M48.732 8.332c-.916.266-1.794.572-2.634.917-2.706-3.619-7.28-6.439-10.134-7.824 3.95.657 10.588 2.626 12.768 6.907z" stroke="#DEDEDE" fill="#E5E5E5" stroke-linecap="round" stroke-linejoin="round"/><path d="M12.725 13.816l2.069-2.396a.5.5 0 0 1 .836.126l3.513 8.041a.5.5 0 0 1-.049.488l-.696.992a.5.5 0 0 1-.812.01L12.7 14.438a.5.5 0 0 1 .024-.623zM19.166 13.556l2.065-.755a.5.5 0 0 1 .671.491l-.19 4.304a.5.5 0 0 1-.294.433l-.73.33a.5.5 0 0 1-.685-.315l-1.145-3.876a.5.5 0 0 1 .308-.612z" stroke="#E5E5E5" fill="#FFF"/><path d="M54.775 8.081c10.882-.065 25.218 6.653 26.52 21.626.247 2.847-.139 5.414-1.018 7.7a8.453 8.453 0 0 1-3.61 1.274c-1.258.147-3.745-.307-6.299-.91l-.639-.154a133.067 133.067 0 0 1-6.42-1.768l-.31-.093-.254-.078-.273-.084a61.262 61.262 0 0 1-.06-.019l-.078-.024s-14.245 5.536-23.176 4.821c-3.95-.316-7.404-1.02-10.364-2.115-.953-2.252-1.436-4.815-1.332-7.705.486-13.568 16.43-22.405 27.313-22.47z" fill="#E5E5E5"/><path d="M74.768 32.684c1.2-.13 1.994-.088 2.38.126M74.719 35.123c.6.229 1.27.259 2.009.09" stroke="#CCC" stroke-width="1.3" stroke-linecap="round"/><path d="M51.342 50.464a43.813 43.813 0 0 1-5.315-.933c.095-2.963.245-5.609.448-7.936.247-2.818.588-6.183 1.025-10.095l3.813-.5c.117 4.384.165 8.061.145 11.031a684.606 684.606 0 0 1-.116 8.433zM72.945 30.76c1.13 2.928 2.012 5.77 2.649 8.527.249 1.078.496 2.235.74 3.47-1.328 1.467-2.916 2.726-4.682 3.78a787.808 787.808 0 0 1-.932-6.125 191.43 191.43 0 0 1-1.153-9.653h3.378z" fill="#DBDBDB"/><path d="M47.112 34.34c-.714 0-1.856-1.786-1.429-2.662.207-.424 2.314-.506 3.989-1.178 1.783-.715 3.145-1.995 3.513-1.518.715.924 2.144.924-.714 2.696-2.858 1.773-4.644 2.662-5.359 2.662zM73.404 33.135c-.674.083-2.462-.55-5.364-1.89-2.902-1.342-1.553-1.508-.986-2.462.296-.5 1.998.05 3.788.532 1.63.439 3.362.773 3.602 1.143.504.777-.366 2.594-1.04 2.677z" fill="#CCC"/><path d="M63.563 9.936c2.19 2.33 4.219 6.056 3.978 6.718-.328.901-4.588 6.345-5.386 6.055-.798-.29-15.354-5.467-15.743-6.229-.244-.475 1.047-3.021 3.873-7.637 1.907-.34 3.758-.475 5.47-.396 2.505.117 5.178.61 7.808 1.489z" stroke="#E3E3E3" stroke-width="1.3" fill="#FFF"/><path d="M59.835 32.667l2.533-.012a.509.509 0 0 1 .361.87l-.804.8c-.15.15-.38.19-.573.1l-1.726-.8a.503.503 0 0 1 .21-.958z" fill="#CCC"/><path d="M35.365 33.833c1.734-.11 2.935-.043 3.605.201M35.698 36.25c1.027.082 2.131-.047 3.312-.387" stroke="#CCC" stroke-width="1.3" stroke-linecap="round"/><path d="M49.412 23.89c-.484 1.43-1.6 2.33-3.349 2.703M69.07 23.89c.484 1.43 1.6 2.33 3.349 2.703" stroke="#CCC" stroke-linecap="round" stroke-linejoin="round"/><path d="M56.557 36.764c-.163 1.537.654 2.218 2.375 2.068 1.67-.132 2.617-.934 2.896-2.423.972 1.412 1.963 2.077 2.88 2.027.898-.045 1.221-.765 1.02-2.179" stroke="#DEDEDE" stroke-linecap="round" stroke-linejoin="round"/><path d="M81.294 29.707c.083.957.095 1.883.04 2.778.708-.056 1.289.122 1.59.553.646.922-.234 2.653-1.966 3.866a7.136 7.136 0 0 1-.643.402 3.574 3.574 0 0 1-.038.102c-.282.179-.57.34-.866.483-3.908 9.713-16.844 13.763-27.698 12.613-9.47-1.002-18.254-4.837-21.994-11.847-.272-.07-.547-.144-.824-.228-2.747-.84-4.97-2.008-4.379-3.471.4-.99 1.552-1.222 3.107-1.007a19.834 19.834 0 0 1-.161-3.399c.486-13.568 16.43-22.405 27.313-22.47 10.882-.066 25.218 6.652 26.52 21.625z" stroke="#DEDEDE"/><path d="M30.3 42.92c2.008 1.41 4.965 1.423 8.112 2.344 3.43 1.003 7.17 1.675 6.719 4.292-.451 2.617-5.423 2.617-7.805 2.23-2.063-.334-3.735-.836-5.018-1.505" stroke="#DEDEDE" stroke-width="1.3" fill="#FFF" stroke-linecap="round"/><path d="M70.606 0c1.45 0 8.394 10 7.06 18.663l-.11.459c2.014 2.914 3.377 6.432 3.738 10.585.083.958.095 1.884.04 2.778.708-.056 1.289.122 1.59.553.646.922-.234 2.653-1.966 3.866a7.136 7.136 0 0 1-.643.402 3.598 3.598 0 0 1-.038.102c-.282.179-.57.34-.866.483-.8 1.989-1.979 3.74-3.44 5.258 1.974 1.26 3.073 2.695 2.84 4.022C78.58 48.478 76.445 49.386 74 50c-2.058.516-5.318.185-8.9-.663-4.317 1.25-9.02 1.63-13.387 1.167a43.512 43.512 0 0 1-6.45-1.165l-.06.656-.21.024c-.928 2.152-5.435 2.13-7.667 1.768-1.592-.258-2.95-.616-4.078-1.073a69.532 69.532 0 0 1-5.53-.226l-.636-.058c-.418.681-2.282 1.136-4.533.94-2.517-.221-4.566-1.173-4.495-1.986a.418.418 0 0 1 .026-.116 79.576 79.576 0 0 1-5.676-.898c-3.81-.735-4.711-1.202-6.905-1.655-.426-.088-.627-.08-.81-.057l-.121.016c-.268.035-.596.062-1.614-.169C.54 45.958.736 42.767.854 41.49c.148-1.59 2.074-2.882 4.732-3.714L3 35.5a1.342 1.342 0 0 1-1.24-2.26l2.552-2.552a4 4 0 0 1 4.856-.62l3.967 2.333c2.63-2.456 6.794-3.866 11.33-3.49a23.63 23.63 0 0 1 3.08.461c.05-.495.122-.986.214-1.469l-.18-1.033c-1.976-11.896 3.666-25.598 5.663-25.703 1.506-.079 7.909.826 12.202 3.693 1.347-1.119 3.163-1.99 5.535-2.516 5.388-1.196 9.024-.017 11.368 2.624C65.525 1.666 69.355 0 70.606 0z" stroke="#DEDEDE" stroke-linecap="round"/></g></svg>