<?xml version="1.0" encoding="UTF-8"?>
<svg width="38px" height="38px" viewBox="0 0 38 38" version="1.1" xmlns="http://www.w3.org/2000/svg" xmlns:xlink="http://www.w3.org/1999/xlink">
    <title>icn_blockly_head_phone</title>
    <g id="设计规范" stroke="none" stroke-width="1" fill="none" fill-rule="evenodd">
        <g id="事件类积木图标汇总" transform="translate(-128.000000, -625.000000)">
            <g id="Group-2" transform="translate(123.000000, 620.000000)">
                <g id="icn_blockly_head_phone" transform="translate(5.000000, 5.000000)">
                    <circle id="Oval-3" stroke="#496EB8" stroke-width="1.08" fill="#FFFFFF" cx="19" cy="19" r="18.46"></circle>
                    <g id="编组" transform="translate(7.000000, 7.000000)">
                        <rect id="矩形" x="0" y="0" width="24" height="24"></rect>
                        <path d="M14.6732362,15.7011092 L13.7014365,16.4156847 C13.7014365,16.4156847 12.7270981,16.86971 11.5618524,15.8325911 C10.3941949,14.7930586 8.32163151,12.4210493 7.73900865,11.0613869 C7.15638579,9.69918385 8.32163151,9.1160903 8.32163151,9.1160903 C8.32163151,9.1160903 9.84635173,7.85068839 9.90829508,7.62494607 C9.97277708,7.39666305 10.8156128,6.49102604 9.00085045,4.05702336 C7.18621507,1.62543436 6.76467029,2.11172675 5.79287059,2.85615555 C4.82107089,3.60045731 3.45755569,5.0618752 3.16738666,6.7490354 C2.87493283,8.43619561 2.68148681,10.5105604 5.14576572,14.209965 C7.61004464,17.9093696 11.3362923,20.7304498 13.4088557,21.1844752 C15.4863695,21.6385005 16.944196,21.9287769 19.0142207,20.2441574 C21.0893228,18.5568702 21.4487973,18.395662 20.5067,17.1947942 C19.5671413,15.9939264 17.4995282,14.5548667 17.1895576,14.495287 C16.8821257,14.4332936 16.4359559,14.3289974 15.7392202,14.8475568 C15.0401997,15.3637026 14.6732362,15.7011092 14.6732362,15.7011092" id="Fill-1" fill="#618FEE"></path>
                    </g>
                </g>
            </g>
        </g>
    </g>
</svg>