<svg t="1640681013602" class="icon" viewBox="0 0 1024 1024" version="1.1" xmlns="http://www.w3.org/2000/svg" p-id="8221" width="24" height="24"><path d="M527.506286 48.566857C280.795429 48.566857 80.822857 248.576 80.822857 495.286857c0 246.710857 200.009143 446.72 446.72 446.72 246.747429 0 446.756571-200.009143 446.756572-446.72 0-246.710857-200.009143-446.72-446.756572-446.72z m0 742.253714a56.941714 56.941714 0 1 1 0-113.92 56.941714 56.941714 0 0 1 0 113.92z m56.978285-241.627428a56.941714 56.941714 0 0 1-113.92 0V306.102857a56.941714 56.941714 0 0 1 113.92 0v243.053714z" fill="#FAAD14" p-id="8222"></path></svg>