<?xml version="1.0" encoding="UTF-8"?>
<svg width="38px" height="38px" viewBox="0 0 38 38" version="1.1" xmlns="http://www.w3.org/2000/svg" xmlns:xlink="http://www.w3.org/1999/xlink">
    <title>icn_blockly_head_cellphone</title>
    <g id="设计规范" stroke="none" stroke-width="1" fill="none" fill-rule="evenodd">
        <g id="事件类积木图标汇总" transform="translate(-128.000000, -346.000000)">
            <g id="Group-2" transform="translate(123.000000, 341.000000)">
                <g id="icn_blockly_head_cellphone" transform="translate(5.000000, 5.000000)">
                    <circle id="Oval-3" stroke="#496EB8" stroke-width="1.08" fill="#FFFFFF" cx="19" cy="19" r="18.46"></circle>
                    <g id="编组" transform="translate(7.000000, 7.000000)">
                        <rect id="矩形" x="0" y="0" width="24" height="24"></rect>
                        <path d="M23.8339791,12.5508852 L23.9013884,12.6986613 L23.9414437,12.8560695 C24.0005673,13.2247284 23.8235484,13.5941738 23.4991831,13.7790849 L23.3514071,13.8464943 L20.8189632,14.7391538 L21.3121193,17.3786443 L21.3275731,17.541463 C21.3287885,17.8711323 21.148111,18.1771629 20.8574836,18.334946 L20.7264071,18.3931276 L18.1939632,19.2857872 L18.6871193,21.9252776 L18.7026291,22.0869601 C18.7049662,22.513662 18.4023438,22.8942073 17.9680574,22.9754919 C17.5337711,23.0567766 17.1140034,22.8114398 16.9618584,22.4127772 L16.9178432,22.2564301 L16.281786,18.8581134 L16.2663322,18.6952946 C16.2651168,18.3656253 16.4457943,18.0595947 16.7364217,17.9018117 L16.8674982,17.84363 L19.4019911,16.9504214 L18.906786,14.31148 L18.8913322,14.1486613 C18.8901168,13.8189919 19.0707943,13.5129614 19.3614217,13.3551783 L19.4924982,13.2969966 L22.7535554,12.14868 L22.9109636,12.1086247 C23.2796225,12.0495011 23.6490679,12.2265199 23.8339791,12.5508852 Z M14.5351905,3.75 L18.4323048,6 C19.8671827,6.82842712 20.3588082,8.66319834 19.5303811,10.0980762 L13.5303811,20.4903811 C12.7019539,21.9252589 10.8671827,22.4168844 9.43230485,21.5884573 L5.53519053,19.3384573 C4.10031266,18.5100301 3.60868719,16.6752589 4.43711432,15.2403811 L10.4371143,4.84807621 C11.2655414,3.41319834 13.1003127,2.92157288 14.5351905,3.75 Z M7.88692101,17.6651406 C7.57626084,18.2032198 7.76062039,18.891259 8.29869959,19.2019192 C8.83677879,19.5125793 9.524818,19.3282198 9.83547817,18.7901406 C10.1461383,18.2520614 9.96177879,17.5640222 9.42369959,17.253362 C8.88562039,16.9427018 8.19758118,17.1270614 7.88692101,17.6651406 Z M7.00562284,2.9256719 L7.04963807,3.08201906 L7.68569523,6.48033574 C7.75715429,6.86212615 7.57569757,7.23961355 7.24871503,7.42679309 L7.099983,7.4948191 L4.5669901,8.3854296 L5.06069523,11.0269691 C5.13215429,11.4087595 4.95069757,11.7862469 4.62371503,11.9734265 L4.474983,12.0414525 L1.21392584,13.1897692 C0.745087366,13.3548613 0.231185034,13.1086263 0.0660928532,12.6397878 C-0.0806557523,12.2230425 0.0975949121,11.7706912 0.468298125,11.5593642 L0.616074163,11.4919549 L3.14981706,10.6000453 L2.65536193,7.95980484 C2.58390286,7.57801443 2.76535958,7.20052703 3.09234213,7.0133475 L3.24107416,6.94532149 L5.77481706,6.05341195 L5.28036193,3.41317147 C5.19907729,2.97888514 5.44441403,2.55911747 5.84307664,2.40697243 L5.9994238,2.36295719 C6.43371012,2.28167256 6.8534778,2.5270093 7.00562284,2.9256719 Z" id="形状结合" fill="#618FEE"></path>
                    </g>
                </g>
            </g>
        </g>
    </g>
</svg>