<?xml version="1.0" encoding="UTF-8"?>
<svg width="38px" height="38px" viewBox="0 0 38 38" version="1.1" xmlns="http://www.w3.org/2000/svg" xmlns:xlink="http://www.w3.org/1999/xlink">
    <title>icn_blockly_head_message</title>
    <g id="设计规范" stroke="none" stroke-width="1" fill="none" fill-rule="evenodd">
        <g id="事件类积木图标汇总" transform="translate(-128.000000, -529.000000)">
            <g id="Group-2" transform="translate(123.000000, 524.000000)">
                <g id="icn_blockly_head_message" transform="translate(5.000000, 5.000000)">
                    <circle id="Oval-3" stroke="#496EB8" stroke-width="1.08" fill="#FFFFFF" cx="19" cy="19" r="18.46"></circle>
                    <g id="编组" transform="translate(7.000000, 7.000000)">
                        <rect id="矩形" x="0" y="0" width="24" height="24"></rect>
                        <path d="M17.2336245,13.0467626 C16.3689956,13.0467626 15.6615721,12.3329137 15.6615721,11.4604317 C15.6615721,10.5879496 16.3689956,9.87410072 17.2336245,9.87410072 C18.0982533,9.87410072 18.8056769,10.5879496 18.8056769,11.4604317 C18.8056769,12.3461331 18.0982533,13.0467626 17.2336245,13.0467626 L17.2336245,13.0467626 Z M11.9934498,13.0467626 C11.128821,13.0467626 10.4213974,12.3329137 10.4213974,11.4604317 C10.4213974,10.5879496 11.128821,9.87410072 11.9934498,9.87410072 C12.8580786,9.87410072 13.5655022,10.5879496 13.5655022,11.4604317 C13.5655022,12.3461331 12.8580786,13.0467626 11.9934498,13.0467626 L11.9934498,13.0467626 Z M6.75327511,13.0467626 C5.88864629,13.0467626 5.18122271,12.3329137 5.18122271,11.4604317 C5.18122271,10.5879496 5.88864629,9.87410072 6.75327511,9.87410072 C7.61790393,9.87410072 8.32532751,10.5879496 8.32532751,11.4604317 C8.32532751,12.3461331 7.61790393,13.0467626 6.75327511,13.0467626 L6.75327511,13.0467626 Z M11.9934498,3 C6.20305677,3 1.5,6.79397482 1.5,11.4604317 C1.5,13.6284173 2.52183406,15.7038669 4.39519651,17.2769784 C4.69650655,17.5281475 4.82751092,17.9379496 4.73580786,18.3345324 L4.04148472,21.375 L8.37772926,19.630036 C8.49563319,19.5771583 8.63973799,19.5507194 8.77074236,19.5507194 C8.84934498,19.5507194 8.94104803,19.5639388 9.01965066,19.5771583 C10.0021834,19.8151079 11.010917,19.9340827 12.0065502,19.9340827 C17.7838428,19.9340827 22.5,16.1401079 22.5,11.4736511 C22.4737991,6.79397482 17.7707424,3 11.9934498,3 Z" id="Fill-1" fill="#618FEE"></path>
                    </g>
                </g>
            </g>
        </g>
    </g>
</svg>