<svg t="1640682377561" class="icon" viewBox="0 0 1024 1024" version="1.1" xmlns="http://www.w3.org/2000/svg" p-id="8890" width="22" height="22"><path d="M448.9216 34.6624c-9.1136 7.7824-15.872 16.5888-22.528 27.4944l-4.1472 7.0144-9.0624 17.3568-14.2336 29.7984L237.568 459.0592l-9.6256 21.4016-4.8128 11.6224-3.8912 10.24-3.2768 9.6768-1.536 4.8128c-11.264 37.7344-10.24 71.424 10.0352 102.6048 20.1728 31.0272 50.432 45.8752 89.6512 51.6096l5.12 0.6656 10.24 1.1264 11.0592 0.8192 12.6464 0.5632 33.28 0.512 57.3952 0.0512v212.5824l0.3584 21.4016 0.512 10.4448 0.8704 9.3184c1.3824 12.6976 3.7888 23.552 8.7552 34.4064 9.6768 21.248 27.5968 38.3488 53.7088 43.9808 25.9584 5.632 49.3568-2.4064 67.072-17.5616 9.0624-7.7824 15.872-16.5888 22.528-27.4432l4.096-7.0656 9.0624-17.3568 14.2848-29.8496 157.3888-334.1824 13.568-29.952 4.8128-11.5712 3.8912-10.24 3.2768-9.6768 1.536-4.8128c11.264-37.7344 10.24-71.424-10.0352-102.6048-20.1728-31.0272-50.432-45.8752-89.6512-51.6096l-5.12-0.6656-10.24-1.1264-11.0592-0.8192-19.9168-0.768-26.112-0.3072-57.344-0.1024V136.6528l-0.3072-21.4016-0.512-10.4448-0.8704-9.3184a108.4928 108.4928 0 0 0-8.704-34.4064l-3.584-6.912a74.8544 74.8544 0 0 0-50.176-37.0688 76.288 76.288 0 0 0-67.072 17.5616z" fill="#FFFFFF" p-id="8891"></path></svg>