<?xml version="1.0" encoding="UTF-8"?>
<svg width="39px" height="39px" viewBox="0 0 39 39" version="1.1" xmlns="http://www.w3.org/2000/svg" xmlns:xlink="http://www.w3.org/1999/xlink">
    <title>ic_steps</title>
    <g id="4-计步器" stroke="none" stroke-width="1" fill="none" fill-rule="evenodd">
        <g id="画板" transform="translate(-2.000000, -3.000000)">
            <g id="ic_steps" transform="translate(3.000000, 4.000000)">
                <circle id="Oval-3" stroke="#496EB8" stroke-width="1.08" fill="#FFFFFF" fill-rule="nonzero" cx="18.46" cy="18.46" r="18.46"></circle>
                <path d="M8.49854221,15.2116308 C8.5165095,15.4100407 8.61860532,15.5994795 8.79466621,15.7225608 L8.79466621,15.7225608 L19.9370717,23.5120356 L20.2852924,23.787543 C23.0776793,25.947584 26.0282821,27.0505439 29.0877898,27.0505439 C29.1518484,27.0505439 29.2138973,27.0419392 29.2728437,27.0258227 C27.368271,28.5514616 22.9222834,28.4900627 18.5,25.3567267 C15.6114883,23.3101192 12.3475893,20.9798988 8.70830294,18.3660652 L7.92272334,17.8015987 C7.43136973,17.4484292 7.31934938,16.7638079 7.67251889,16.2724543 C7.6805849,16.2612323 7.68886252,16.2501639 7.69734729,16.2392551 C7.96539031,15.8946341 8.22582014,15.5608657 8.47863676,15.2379499 Z M17.3335142,11.3576302 C19.0660793,12.1563319 21.3386537,9.54034866 22.3047416,10.099965 C22.4057584,10.3364742 22.8685709,11.645934 23.6931788,14.0283442 L23.6370813,14.0410517 L20.8240967,14.9204219 L20.7276322,14.9585298 C20.4203751,15.1069649 20.2599781,15.4619517 20.364842,15.7973968 C20.4801922,16.1663865 20.8728273,16.3720018 21.2418169,16.2566516 L21.2418169,16.2566516 L24.0548015,15.3772814 L24.1466139,15.3407974 C24.2241926,15.5657057 24.3041942,15.7977993 24.3866186,16.0370781 L24.3297023,16.0511696 L21.7109357,16.907657 L21.6149789,16.9470258 C21.3096935,17.0994749 21.1539625,17.4565333 21.2632135,17.7905753 C21.3833895,18.1580216 21.7786855,18.3584737 22.1461318,18.2382976 L22.1461318,18.2382976 L24.7648984,17.3818101 L24.8386311,17.3506512 C24.9034656,17.5392432 24.9695341,17.7314944 25.0368364,17.9274049 L25.0315412,17.9280928 L22.6048418,18.7274338 L22.5089682,18.767005 C22.2040051,18.9200977 22.0490277,19.2774838 22.1589831,19.6112946 C22.279934,19.9784866 22.675652,20.1781043 23.0428439,20.0571534 L23.0428439,20.0571534 L25.4695433,19.2578124 L25.4903723,19.2485486 C25.6488676,19.7105494 25.8132381,20.1899739 25.9834838,20.6868221 C29.1152738,23.5777263 30.4156056,25.4656335 29.8844793,26.3505439 C29.8480977,26.4087055 29.8090617,26.4655818 29.7674431,26.5211312 C29.7805476,26.4663899 29.7877898,26.4093126 29.7877898,26.3505439 C29.7877898,25.9639446 29.4743891,25.6505439 29.0877898,25.6505439 C26.2382137,25.6505439 23.4739332,24.5725203 20.7781313,22.3938911 L20.7781313,22.3938911 L9.59680777,14.5751424 L9.5076806,14.5220956 C9.37576203,14.4562328 9.23008488,14.4356451 9.09092393,14.4567417 C12.1753699,10.5425777 14.0040791,8.41682402 14.5781891,8.07950759 C15.6188936,7.46804512 15.6009491,10.5589286 17.3335142,11.3576302 Z" id="形状结合" fill="#608FEE"></path>
            </g>
        </g>
    </g>
</svg>